<?xml version="1.0" encoding="UTF-8" standalone="no"?>
<!DOCTYPE svg PUBLIC "-//W3C//DTD SVG 1.1//EN"
 "http://www.w3.org/Graphics/SVG/1.1/DTD/svg11.dtd">
<!-- Generated by graphviz version 2.43.0 (0)
 -->
<!-- Title: defense_in_depth Pages: 1 -->
<svg width="496pt" height="413pt"
 viewBox="0.00 0.00 495.60 412.60" xmlns="http://www.w3.org/2000/svg" xmlns:xlink="http://www.w3.org/1999/xlink">
<g id="graph0" class="graph" transform="scale(1 1) rotate(0) translate(28.8 383.8)">
<title>defense_in_depth</title>
<polygon fill="white" stroke="transparent" points="-28.8,28.8 -28.8,-383.8 466.8,-383.8 466.8,28.8 -28.8,28.8"/>
<text text-anchor="middle" x="219" y="-336.6" font-family="Helvetica,sans-Serif" font-size="18.00" fill="#1b2a4a">Defense in Depth — Layered Network Controls</text>
<!-- l1 -->
<g id="node1" class="node">
<title>l1</title>
<path fill="#fff3e0" stroke="#ff9900" d="M423,-327C423,-327 15,-327 15,-327 9,-327 3,-321 3,-315 3,-315 3,-246 3,-246 3,-240 9,-234 15,-234 15,-234 423,-234 423,-234 429,-234 435,-240 435,-246 435,-246 435,-315 435,-315 435,-321 429,-327 423,-327"/>
<text text-anchor="middle" x="219" y="-314.2" font-family="Helvetica,sans-Serif" font-size="11.00" fill="#1b2a4a">LAYER 1 — Network ACLs</text>
<text text-anchor="middle" x="219" y="-302.2" font-family="Helvetica,sans-Serif" font-size="11.00" fill="#1b2a4a">(Subnet level, Stateless)</text>
<text text-anchor="middle" x="219" y="-277.2" font-family="Helvetica,sans-Serif" font-size="11.00" fill="#1b2a4a">Default deny + explicit allows</text>
<text text-anchor="middle" x="219" y="-265.2" font-family="Helvetica,sans-Serif" font-size="11.00" fill="#1b2a4a">Inbound: 443 from 0.0.0.0/0 to public subnets</text>
<text text-anchor="middle" x="219" y="-253.2" font-family="Helvetica,sans-Serif" font-size="11.00" fill="#1b2a4a">Inbound: ephemeral ports for return traffic</text>
<text text-anchor="middle" x="219" y="-241.2" font-family="Helvetica,sans-Serif" font-size="11.00" fill="#1b2a4a">Outbound: allow all (stateless, needs return rule)</text>
</g>
<!-- l2 -->
<g id="node2" class="node">
<title>l2</title>
<path fill="#e8f5e9" stroke="#2e7d32" d="M423,-198C423,-198 15,-198 15,-198 9,-198 3,-192 3,-186 3,-186 3,-129 3,-129 3,-123 9,-117 15,-117 15,-117 423,-117 423,-117 429,-117 435,-123 435,-129 435,-129 435,-186 435,-186 435,-192 429,-198 423,-198"/>
<text text-anchor="middle" x="219" y="-185.2" font-family="Helvetica,sans-Serif" font-size="11.00" fill="#1b2a4a">LAYER 2 — Security Groups</text>
<text text-anchor="middle" x="219" y="-173.2" font-family="Helvetica,sans-Serif" font-size="11.00" fill="#1b2a4a">(Instance level, Stateful)</text>
<text text-anchor="middle" x="219" y="-148.2" font-family="Helvetica,sans-Serif" font-size="11.00" fill="#1b2a4a">ALB&#45;SG &#160;→ &#160;App&#45;SG &#160;→ &#160;DB&#45;SG</text>
<text text-anchor="middle" x="219" y="-136.2" font-family="Helvetica,sans-Serif" font-size="11.00" fill="#1b2a4a">In: 443/any &#160;&#160;&#160;In: 8080 from ALB&#45;SG &#160;&#160;&#160;In: 5432 from App&#45;SG</text>
<text text-anchor="middle" x="219" y="-124.2" font-family="Helvetica,sans-Serif" font-size="11.00" fill="#1b2a4a">Reference other SGs, not raw CIDR blocks</text>
</g>
<!-- l1&#45;&gt;l2 -->
<g id="edge1" class="edge">
<title>l1&#45;&gt;l2</title>
<path fill="none" stroke="#3e5c89" d="M219,-234C219,-234 219,-208.02 219,-208.02"/>
<polygon fill="#3e5c89" stroke="#3e5c89" points="222.5,-208.02 219,-198.02 215.5,-208.02 222.5,-208.02"/>
</g>
<!-- l3 -->
<g id="node3" class="node">
<title>l3</title>
<path fill="#fdecea" stroke="#c62828" d="M423,-81C423,-81 15,-81 15,-81 9,-81 3,-75 3,-69 3,-69 3,-12 3,-12 3,-6 9,0 15,0 15,0 423,0 423,0 429,0 435,-6 435,-12 435,-12 435,-69 435,-69 435,-75 429,-81 423,-81"/>
<text text-anchor="middle" x="219" y="-68.2" font-family="Helvetica,sans-Serif" font-size="11.00" fill="#1b2a4a">LAYER 3 — Host&#45;Based Controls</text>
<text text-anchor="middle" x="219" y="-56.2" font-family="Helvetica,sans-Serif" font-size="11.00" fill="#1b2a4a">(OS level)</text>
<text text-anchor="middle" x="219" y="-31.2" font-family="Helvetica,sans-Serif" font-size="11.00" fill="#1b2a4a">iptables / nftables on Linux</text>
<text text-anchor="middle" x="219" y="-19.2" font-family="Helvetica,sans-Serif" font-size="11.00" fill="#1b2a4a">Application&#45;level authentication</text>
<text text-anchor="middle" x="219" y="-7.2" font-family="Helvetica,sans-Serif" font-size="11.00" fill="#1b2a4a">TLS everywhere</text>
</g>
<!-- l2&#45;&gt;l3 -->
<g id="edge2" class="edge">
<title>l2&#45;&gt;l3</title>
<path fill="none" stroke="#3e5c89" d="M219,-116.91C219,-116.91 219,-91.02 219,-91.02"/>
<polygon fill="#3e5c89" stroke="#3e5c89" points="222.5,-91.02 219,-81.02 215.5,-91.02 222.5,-91.02"/>
</g>
</g>
</svg>
